<?xml version="1.0" encoding="utf-8"?>
<!-- Generator: Adobe Illustrator 19.0.1, SVG Export Plug-In . SVG Version: 6.00 Build 0)  -->
<svg version="1.1" id="Livello_1" xmlns="http://www.w3.org/2000/svg" xmlns:xlink="http://www.w3.org/1999/xlink" x="0px" y="0px"
	 viewBox="-611 314.3 141.7 141.7" style="enable-background:new -611 314.3 141.7 141.7;" xml:space="preserve">
<style type="text/css">
	.st0{stroke:#000000;stroke-width:5;stroke-miterlimit:10;}
</style>
<g id="Livello_46">
	<path class="aaicons" d="M-578.1,338.7c0-5.6-4.5-10.2-10.1-10.2c-5.6,0-10.1,4.6-10.1,10.2s4.5,10.2,10.1,10.2
		C-582.6,348.9-578.1,344.4-578.1,338.7 M-601.3,402.2c0,0-0.1,0.1-0.2,0.4h121c0,0,0,0,0,0l-41.3-56.2c0,0-4.9-6.7-9.8,0
		l-25.6,34.8l-9.4-12.8c0,0-4.9-6.7-9.8,0L-601.3,402.2z M-476.4,406.2h-129.2v-86.5h129.2L-476.4,406.2L-476.4,406.2z M-471,408.9
		v-92c0-1.5-1.2-2.7-2.7-2.7h-134.6c-1.5,0-2.7,1.2-2.7,2.7v92c0,1.5,1.2,2.7,2.7,2.7h134.6C-472.3,411.6-471,410.4-471,408.9"/>
</g>
<g id="Livello_1_1_">
</g>
<rect x="-601.5" y="421.3" class="aaicons st0" width="28.5" height="28.5"/>
<rect x="-555.3" y="421.3" class="aaicons st0" width="28.5" height="28.5"/>
<rect x="-509" y="421.3" class="aaicons st0" width="28.5" height="28.5"/>
</svg>
