<?xml version="1.0" ?><!DOCTYPE svg  PUBLIC '-//W3C//DTD SVG 1.1//EN'  'http://www.w3.org/Graphics/SVG/1.1/DTD/svg11.dtd'><svg enable-background="new 0 0 24 24" height="24px" id="Layer_1" version="1.1" viewBox="0 0 24 24" width="24px" xml:space="preserve" xmlns="http://www.w3.org/2000/svg" xmlns:xlink="http://www.w3.org/1999/xlink"><path class="aaicons" clip-rule="evenodd" d="M24,18.998c0,0.279-0.223,0.502-0.502,0.502h-18c-0.273,0-0.494-0.223-0.494-0.502  v-1.997c0-0.278,0.221-0.501,0.494-0.501h18c0.279,0,0.502,0.223,0.502,0.501V18.998z M3,18.998C3,19.277,2.777,19.5,2.498,19.5  H0.504C0.223,19.5,0,19.277,0,18.998v-1.997C0,16.723,0.223,16.5,0.504,16.5h1.994C2.777,16.5,3,16.723,3,17.001V18.998z M24,12.999  c0,0.279-0.223,0.501-0.502,0.501h-18c-0.273,0-0.494-0.223-0.494-0.501v-2c0-0.273,0.221-0.498,0.494-0.498h18  c0.279,0,0.502,0.225,0.502,0.498V12.999z M3,12.999C3,13.277,2.777,13.5,2.498,13.5H0.504C0.223,13.5,0,13.277,0,12.999v-2  C0,10.725,0.223,10.5,0.504,10.5h1.994C2.777,10.5,3,10.725,3,10.998V12.999z M24,7.001C24,7.274,23.777,7.5,23.498,7.5h-18  c-0.273,0-0.494-0.226-0.494-0.499V4.998c0-0.273,0.221-0.498,0.494-0.498h18C23.777,4.5,24,4.725,24,4.998V7.001z M3,7.001  C3,7.274,2.777,7.5,2.498,7.5H0.504C0.223,7.5,0,7.274,0,7.001V4.998C0,4.725,0.223,4.5,0.504,4.5h1.994C2.777,4.5,3,4.725,3,4.998  V7.001z" fill-rule="evenodd"/></svg>